G04 #@! TF.FileFunction,Soldermask,Bot*
%FSLAX46Y46*%
G04 Gerber Fmt 4.6, Leading zero omitted, Abs format (unit mm)*
G04 Created by KiCad (PCBNEW 4.0.0-rc2-stable) date 11/25/2015 6:29:23 PM*
%MOMM*%
G01*
G04 APERTURE LIST*
%ADD10C,0.100000*%
%ADD11C,1.299160*%
%ADD12R,2.127200X2.432000*%
%ADD13O,2.127200X2.432000*%
%ADD14R,2.127200X2.127200*%
%ADD15O,2.127200X2.127200*%
G04 APERTURE END LIST*
D10*
D11*
X73238360Y-133896100D03*
X77637640Y-133896100D03*
D12*
X84074000Y-134620000D03*
D13*
X86614000Y-134620000D03*
X89154000Y-134620000D03*
X91694000Y-134620000D03*
X94234000Y-134620000D03*
X96774000Y-134620000D03*
D14*
X54610000Y-88900000D03*
D15*
X57150000Y-88900000D03*
X54610000Y-91440000D03*
X57150000Y-91440000D03*
X54610000Y-93980000D03*
X57150000Y-93980000D03*
X54610000Y-96520000D03*
X57150000Y-96520000D03*
X54610000Y-99060000D03*
X57150000Y-99060000D03*
X54610000Y-101600000D03*
X57150000Y-101600000D03*
X54610000Y-104140000D03*
X57150000Y-104140000D03*
X54610000Y-106680000D03*
X57150000Y-106680000D03*
X54610000Y-109220000D03*
X57150000Y-109220000D03*
X54610000Y-111760000D03*
X57150000Y-111760000D03*
X54610000Y-114300000D03*
X57150000Y-114300000D03*
X54610000Y-116840000D03*
X57150000Y-116840000D03*
X54610000Y-119380000D03*
X57150000Y-119380000D03*
X54610000Y-121920000D03*
X57150000Y-121920000D03*
X54610000Y-124460000D03*
X57150000Y-124460000D03*
X54610000Y-127000000D03*
X57150000Y-127000000D03*
D14*
X95250000Y-88900000D03*
D15*
X97790000Y-88900000D03*
X95250000Y-91440000D03*
X97790000Y-91440000D03*
X95250000Y-93980000D03*
X97790000Y-93980000D03*
X95250000Y-96520000D03*
X97790000Y-96520000D03*
X95250000Y-99060000D03*
X97790000Y-99060000D03*
X95250000Y-101600000D03*
X97790000Y-101600000D03*
X95250000Y-104140000D03*
X97790000Y-104140000D03*
X95250000Y-106680000D03*
X97790000Y-106680000D03*
X95250000Y-109220000D03*
X97790000Y-109220000D03*
X95250000Y-111760000D03*
X97790000Y-111760000D03*
X95250000Y-114300000D03*
X97790000Y-114300000D03*
X95250000Y-116840000D03*
X97790000Y-116840000D03*
X95250000Y-119380000D03*
X97790000Y-119380000D03*
X95250000Y-121920000D03*
X97790000Y-121920000D03*
X95250000Y-124460000D03*
X97790000Y-124460000D03*
X95250000Y-127000000D03*
X97790000Y-127000000D03*
M02*
