G04 #@! TF.FileFunction,Copper,L1,Top,Signal*
%FSLAX46Y46*%
G04 Gerber Fmt 4.6, Leading zero omitted, Abs format (unit mm)*
G04 Created by KiCad (PCBNEW 4.0.0-rc1-stable) date 10/23/2015 7:55:34 PM*
%MOMM*%
G01*
G04 APERTURE LIST*
%ADD10C,0.100000*%
%ADD11R,0.250000X1.000000*%
%ADD12R,1.000000X0.250000*%
%ADD13R,1.060000X0.650000*%
%ADD14R,0.500380X2.301240*%
%ADD15R,1.998980X2.499360*%
%ADD16R,1.000000X1.250000*%
%ADD17R,1.250000X1.000000*%
%ADD18R,2.500000X1.000000*%
%ADD19R,1.198880X1.198880*%
%ADD20R,1.524000X2.032000*%
%ADD21R,1.727200X2.032000*%
%ADD22O,1.727200X2.032000*%
%ADD23R,1.727200X1.727200*%
%ADD24O,1.727200X1.727200*%
%ADD25R,0.700000X1.300000*%
%ADD26R,1.300000X0.700000*%
%ADD27R,5.600700X2.100580*%
%ADD28C,0.685800*%
%ADD29C,0.838200*%
%ADD30C,0.254000*%
%ADD31C,0.508000*%
%ADD32C,0.203200*%
G04 APERTURE END LIST*
D10*
D11*
X79061000Y-99329000D03*
X78561000Y-99329000D03*
X78061000Y-99329000D03*
X77561000Y-99329000D03*
X77061000Y-99329000D03*
X76561000Y-99329000D03*
X76061000Y-99329000D03*
X75561000Y-99329000D03*
X75061000Y-99329000D03*
X74561000Y-99329000D03*
X74061000Y-99329000D03*
X73561000Y-99329000D03*
X73061000Y-99329000D03*
X72561000Y-99329000D03*
X72061000Y-99329000D03*
X71561000Y-99329000D03*
D12*
X69611000Y-101279000D03*
X69611000Y-101779000D03*
X69611000Y-102279000D03*
X69611000Y-102779000D03*
X69611000Y-103279000D03*
X69611000Y-103779000D03*
X69611000Y-104279000D03*
X69611000Y-104779000D03*
X69611000Y-105279000D03*
X69611000Y-105779000D03*
X69611000Y-106279000D03*
X69611000Y-106779000D03*
X69611000Y-107279000D03*
X69611000Y-107779000D03*
X69611000Y-108279000D03*
X69611000Y-108779000D03*
D11*
X71561000Y-110729000D03*
X72061000Y-110729000D03*
X72561000Y-110729000D03*
X73061000Y-110729000D03*
X73561000Y-110729000D03*
X74061000Y-110729000D03*
X74561000Y-110729000D03*
X75061000Y-110729000D03*
X75561000Y-110729000D03*
X76061000Y-110729000D03*
X76561000Y-110729000D03*
X77061000Y-110729000D03*
X77561000Y-110729000D03*
X78061000Y-110729000D03*
X78561000Y-110729000D03*
X79061000Y-110729000D03*
D12*
X81011000Y-108779000D03*
X81011000Y-108279000D03*
X81011000Y-107779000D03*
X81011000Y-107279000D03*
X81011000Y-106779000D03*
X81011000Y-106279000D03*
X81011000Y-105779000D03*
X81011000Y-105279000D03*
X81011000Y-104779000D03*
X81011000Y-104279000D03*
X81011000Y-103779000D03*
X81011000Y-103279000D03*
X81011000Y-102779000D03*
X81011000Y-102279000D03*
X81011000Y-101779000D03*
X81011000Y-101279000D03*
D13*
X63203000Y-134300000D03*
X63203000Y-133350000D03*
X63203000Y-132400000D03*
X61003000Y-132400000D03*
X61003000Y-134300000D03*
D14*
X73837800Y-131297680D03*
X74637900Y-131297680D03*
X75438000Y-131297680D03*
X76238100Y-131297680D03*
X77038200Y-131297680D03*
D15*
X70987920Y-131396740D03*
X70987920Y-136895840D03*
X79888080Y-131396740D03*
X79888080Y-136895840D03*
D16*
X83058000Y-99187000D03*
X85058000Y-99187000D03*
X83058000Y-96901000D03*
X85058000Y-96901000D03*
D17*
X79248000Y-112665000D03*
X79248000Y-114665000D03*
X83874768Y-112689682D03*
X83874768Y-114689682D03*
X81588768Y-112721682D03*
X81588768Y-114721682D03*
D16*
X65564000Y-108966000D03*
X67564000Y-108966000D03*
D17*
X74295000Y-96361000D03*
X74295000Y-94361000D03*
D16*
X67595974Y-113617878D03*
X65595974Y-113617878D03*
X67579974Y-111331878D03*
X65579974Y-111331878D03*
X80042000Y-85217000D03*
X82042000Y-85217000D03*
X74295000Y-85217000D03*
X72295000Y-85217000D03*
D17*
X90678000Y-84852000D03*
X90678000Y-86852000D03*
X87376000Y-84852000D03*
X87376000Y-86852000D03*
X64741952Y-101750538D03*
X64741952Y-99750538D03*
X67027952Y-101750538D03*
X67027952Y-99750538D03*
D16*
X72204875Y-96507365D03*
X70204875Y-96507365D03*
X72204875Y-94221365D03*
X70204875Y-94221365D03*
D18*
X66675000Y-132485000D03*
X66675000Y-135485000D03*
D17*
X58801000Y-134477000D03*
X58801000Y-132477000D03*
D18*
X55245000Y-134469000D03*
X55245000Y-131469000D03*
D19*
X73152000Y-117602000D03*
X73152000Y-119700040D03*
D20*
X67183000Y-127889000D03*
X70485000Y-127889000D03*
D19*
X75946000Y-117662960D03*
X75946000Y-119761000D03*
D21*
X84963000Y-134620000D03*
D22*
X87503000Y-134620000D03*
X90043000Y-134620000D03*
X92583000Y-134620000D03*
X95123000Y-134620000D03*
X97663000Y-134620000D03*
D23*
X54610000Y-88900000D03*
D24*
X57150000Y-88900000D03*
X54610000Y-91440000D03*
X57150000Y-91440000D03*
X54610000Y-93980000D03*
X57150000Y-93980000D03*
X54610000Y-96520000D03*
X57150000Y-96520000D03*
X54610000Y-99060000D03*
X57150000Y-99060000D03*
X54610000Y-101600000D03*
X57150000Y-101600000D03*
X54610000Y-104140000D03*
X57150000Y-104140000D03*
X54610000Y-106680000D03*
X57150000Y-106680000D03*
X54610000Y-109220000D03*
X57150000Y-109220000D03*
X54610000Y-111760000D03*
X57150000Y-111760000D03*
X54610000Y-114300000D03*
X57150000Y-114300000D03*
X54610000Y-116840000D03*
X57150000Y-116840000D03*
X54610000Y-119380000D03*
X57150000Y-119380000D03*
X54610000Y-121920000D03*
X57150000Y-121920000D03*
X54610000Y-124460000D03*
X57150000Y-124460000D03*
X54610000Y-127000000D03*
X57150000Y-127000000D03*
D23*
X95250000Y-88900000D03*
D24*
X97790000Y-88900000D03*
X95250000Y-91440000D03*
X97790000Y-91440000D03*
X95250000Y-93980000D03*
X97790000Y-93980000D03*
X95250000Y-96520000D03*
X97790000Y-96520000D03*
X95250000Y-99060000D03*
X97790000Y-99060000D03*
X95250000Y-101600000D03*
X97790000Y-101600000D03*
X95250000Y-104140000D03*
X97790000Y-104140000D03*
X95250000Y-106680000D03*
X97790000Y-106680000D03*
X95250000Y-109220000D03*
X97790000Y-109220000D03*
X95250000Y-111760000D03*
X97790000Y-111760000D03*
X95250000Y-114300000D03*
X97790000Y-114300000D03*
X95250000Y-116840000D03*
X97790000Y-116840000D03*
X95250000Y-119380000D03*
X97790000Y-119380000D03*
X95250000Y-121920000D03*
X97790000Y-121920000D03*
X95250000Y-124460000D03*
X97790000Y-124460000D03*
X95250000Y-127000000D03*
X97790000Y-127000000D03*
D25*
X87442000Y-95377000D03*
X89342000Y-95377000D03*
D26*
X76581000Y-94869000D03*
X76581000Y-96769000D03*
D25*
X83759000Y-102743000D03*
X85659000Y-102743000D03*
D26*
X73152000Y-122179000D03*
X73152000Y-124079000D03*
X75946000Y-122174000D03*
X75946000Y-124074000D03*
D27*
X72367140Y-89789000D03*
X82064860Y-89789000D03*
D20*
X90714869Y-89808317D03*
X87412869Y-89808317D03*
D28*
X62103000Y-133350000D03*
X66675000Y-136906000D03*
X55245000Y-129921000D03*
X72771000Y-100711000D03*
X70866000Y-101854000D03*
X79756000Y-101727000D03*
X86868000Y-102743000D03*
X89027602Y-84852000D03*
X77038200Y-128066800D03*
X86487000Y-98044000D03*
X74563531Y-124079000D03*
X81588768Y-116150232D03*
X64055122Y-111331878D03*
X63317462Y-99750538D03*
X70204875Y-92837000D03*
X74295000Y-93091000D03*
X77167965Y-85217000D03*
X72263000Y-92837000D03*
X67564000Y-92837000D03*
X83947000Y-95123000D03*
X61999538Y-90320538D03*
X61999538Y-101750538D03*
X68882738Y-112473262D03*
D29*
X85852000Y-122682000D03*
X85852000Y-114046000D03*
X52324000Y-133306000D03*
D28*
X75819000Y-100965000D03*
X67818000Y-95758000D03*
X75057000Y-101600000D03*
X66802000Y-95758000D03*
X74295000Y-100965000D03*
X67818000Y-97028000D03*
X73533000Y-101600000D03*
X65786000Y-96520000D03*
X69596000Y-122428000D03*
X64653784Y-120650000D03*
X68707000Y-121539000D03*
X64633911Y-119380000D03*
D30*
X63203000Y-133350000D02*
X62103000Y-133350000D01*
D31*
X66675000Y-135485000D02*
X66675000Y-136906000D01*
X55245000Y-131469000D02*
X55245000Y-129921000D01*
D30*
X73561000Y-99329000D02*
X73561000Y-99940935D01*
X73561000Y-99940935D02*
X72936090Y-100565845D01*
X69611000Y-101779000D02*
X70791000Y-101779000D01*
X70791000Y-101779000D02*
X70866000Y-101854000D01*
X81011000Y-101779000D02*
X79808000Y-101779000D01*
X79808000Y-101779000D02*
X79756000Y-101727000D01*
X85659000Y-102743000D02*
X86868000Y-102743000D01*
X89027602Y-84852000D02*
X87376000Y-84852000D01*
X89799000Y-84852000D02*
X89027602Y-84852000D01*
X90678000Y-84852000D02*
X89799000Y-84852000D01*
X77038200Y-131297680D02*
X77038200Y-128066800D01*
X76238100Y-131297680D02*
X77038200Y-131297680D01*
X85058000Y-98056771D02*
X85058000Y-96901000D01*
X85058000Y-99187000D02*
X85058000Y-98056771D01*
X85058000Y-98056771D02*
X86474229Y-98056771D01*
X86474229Y-98056771D02*
X86487000Y-98044000D01*
X74563531Y-124079000D02*
X75941000Y-124079000D01*
X73152000Y-124079000D02*
X74563531Y-124079000D01*
X75941000Y-124079000D02*
X75946000Y-124074000D01*
X81588768Y-114721682D02*
X81588768Y-116150232D01*
X83874768Y-114689682D02*
X81620768Y-114689682D01*
X81620768Y-114689682D02*
X81588768Y-114721682D01*
X79248000Y-114665000D02*
X81532086Y-114665000D01*
X81532086Y-114665000D02*
X81588768Y-114721682D01*
X65579974Y-111331878D02*
X64055122Y-111331878D01*
X65579974Y-111331878D02*
X65579974Y-113601878D01*
X65579974Y-113601878D02*
X65595974Y-113617878D01*
X65564000Y-108966000D02*
X65564000Y-111315904D01*
X65564000Y-111315904D02*
X65579974Y-111331878D01*
X64741952Y-99750538D02*
X63317462Y-99750538D01*
X70204875Y-94221365D02*
X70204875Y-92810875D01*
X67027952Y-99750538D02*
X64741952Y-99750538D01*
X70204875Y-96507365D02*
X70204875Y-94221365D01*
X74295000Y-94361000D02*
X74295000Y-93091000D01*
X77167965Y-85217000D02*
X80042000Y-85217000D01*
X74295000Y-85217000D02*
X77167965Y-85217000D01*
X67564000Y-108966000D02*
X68170000Y-108966000D01*
X68170000Y-108966000D02*
X68857000Y-108279000D01*
X68857000Y-108279000D02*
X69611000Y-108279000D01*
X67870000Y-108660000D02*
X67564000Y-108966000D01*
X89342000Y-95377000D02*
X91694000Y-95377000D01*
X91694000Y-95377000D02*
X92938570Y-94132430D01*
X92714570Y-94132430D02*
X92938570Y-94132430D01*
X92938570Y-94132430D02*
X93091000Y-93980000D01*
X93091000Y-93980000D02*
X95250000Y-93980000D01*
X81661000Y-97917000D02*
X81661000Y-96266000D01*
X81661000Y-96266000D02*
X83794570Y-94132430D01*
X83794570Y-94132430D02*
X92938570Y-94132430D01*
X76061000Y-99329000D02*
X76061000Y-99707000D01*
X79248000Y-100330000D02*
X81661000Y-97917000D01*
X76061000Y-99707000D02*
X76073000Y-99719000D01*
X76073000Y-99719000D02*
X76073000Y-100076000D01*
X76073000Y-100076000D02*
X76327000Y-100330000D01*
X76327000Y-100330000D02*
X79248000Y-100330000D01*
X75692000Y-97663000D02*
X76061000Y-98032000D01*
X76061000Y-98032000D02*
X76061000Y-99329000D01*
X74843000Y-97663000D02*
X75692000Y-97663000D01*
X74295000Y-96361000D02*
X74295000Y-97115000D01*
X74295000Y-97115000D02*
X74843000Y-97663000D01*
X78561000Y-110729000D02*
X78561000Y-111978000D01*
X78561000Y-111978000D02*
X79248000Y-112665000D01*
D31*
X83947000Y-95123000D02*
X87188000Y-95123000D01*
X87188000Y-95123000D02*
X87442000Y-95377000D01*
X72204875Y-94221365D02*
X72204875Y-92895125D01*
X72204875Y-92895125D02*
X72263000Y-92837000D01*
X72204875Y-94221365D02*
X72204875Y-96507365D01*
X68580000Y-82804000D02*
X67310000Y-84074000D01*
X93218000Y-82804000D02*
X68580000Y-82804000D01*
X95250000Y-84836000D02*
X93218000Y-82804000D01*
X95250000Y-87528400D02*
X95250000Y-84836000D01*
X95250000Y-88900000D02*
X95250000Y-87528400D01*
X97790000Y-88900000D02*
X95250000Y-88900000D01*
X83058000Y-96901000D02*
X83058000Y-96012000D01*
X83058000Y-96012000D02*
X83947000Y-95123000D01*
X83058000Y-96901000D02*
X83058000Y-99187000D01*
X64741952Y-101750538D02*
X61999538Y-101750538D01*
X67027952Y-101750538D02*
X64741952Y-101750538D01*
X67595974Y-112473262D02*
X67595974Y-111347878D01*
X67595974Y-113617878D02*
X67595974Y-112473262D01*
X67595974Y-112473262D02*
X68882738Y-112473262D01*
X67595974Y-111347878D02*
X67579974Y-111331878D01*
X85852000Y-113533914D02*
X85852000Y-114046000D01*
X83874768Y-112689682D02*
X85007768Y-112689682D01*
X85007768Y-112689682D02*
X85852000Y-113533914D01*
X97790000Y-121920000D02*
X95250000Y-124460000D01*
X89408000Y-124460000D02*
X95250000Y-124460000D01*
X84963000Y-128905000D02*
X89408000Y-124460000D01*
X84963000Y-134620000D02*
X84963000Y-128905000D01*
X52324000Y-133306000D02*
X52324000Y-126973589D01*
X52324000Y-126973589D02*
X52324000Y-89662000D01*
X54610000Y-127000000D02*
X52350411Y-127000000D01*
X52350411Y-127000000D02*
X52324000Y-126973589D01*
X54610000Y-88900000D02*
X57150000Y-88900000D01*
X55245000Y-134469000D02*
X53487000Y-134469000D01*
X53487000Y-134469000D02*
X52324000Y-133306000D01*
X52324000Y-89662000D02*
X53086000Y-88900000D01*
X53086000Y-88900000D02*
X54610000Y-88900000D01*
X61003000Y-134300000D02*
X58978000Y-134300000D01*
D30*
X58978000Y-134300000D02*
X58801000Y-134477000D01*
D31*
X55245000Y-134469000D02*
X58793000Y-134469000D01*
D30*
X58793000Y-134469000D02*
X58801000Y-134477000D01*
X81011000Y-101279000D02*
X81011000Y-100900000D01*
X81011000Y-100900000D02*
X82724000Y-99187000D01*
X82724000Y-99187000D02*
X83058000Y-99187000D01*
X81588768Y-112721682D02*
X83842768Y-112721682D01*
X83842768Y-112721682D02*
X83874768Y-112689682D01*
X79061000Y-110729000D02*
X80350086Y-110729000D01*
X80350086Y-110729000D02*
X81588768Y-111967682D01*
X81588768Y-111967682D02*
X81588768Y-112721682D01*
X69611000Y-108779000D02*
X69611000Y-110602000D01*
X69611000Y-110602000D02*
X68881122Y-111331878D01*
X68881122Y-111331878D02*
X67579974Y-111331878D01*
X73061000Y-99329000D02*
X73061000Y-97488490D01*
X73061000Y-97488490D02*
X72204875Y-96632365D01*
X72204875Y-96632365D02*
X72204875Y-96507365D01*
X68497000Y-102279000D02*
X67968538Y-101750538D01*
X67968538Y-101750538D02*
X67027952Y-101750538D01*
X69611000Y-102279000D02*
X68497000Y-102279000D01*
X77061000Y-99329000D02*
X77061000Y-98575000D01*
X77061000Y-98575000D02*
X82064860Y-93571140D01*
X82064860Y-93571140D02*
X82064860Y-91093290D01*
X82064860Y-91093290D02*
X82064860Y-89789000D01*
X82064860Y-89789000D02*
X82064860Y-85239860D01*
X82064860Y-85239860D02*
X82042000Y-85217000D01*
X72367140Y-89789000D02*
X72367140Y-91093290D01*
X72367140Y-91093290D02*
X72713850Y-91440000D01*
X75057000Y-91440000D02*
X76581000Y-92964000D01*
X72713850Y-91440000D02*
X75057000Y-91440000D01*
X76581000Y-92964000D02*
X76581000Y-94869000D01*
X72367140Y-89789000D02*
X72367140Y-85289140D01*
X72367140Y-85289140D02*
X72295000Y-85217000D01*
X78061000Y-99329000D02*
X78061000Y-98775828D01*
X90714869Y-90895131D02*
X90714869Y-89808317D01*
X78061000Y-98775828D02*
X83466418Y-93370410D01*
X83466418Y-93370410D02*
X89218721Y-93370410D01*
X89218721Y-93370410D02*
X90678000Y-91911131D01*
X90678000Y-91911131D02*
X90678000Y-90932000D01*
X90678000Y-90932000D02*
X90714869Y-90895131D01*
X90714869Y-89808317D02*
X90714869Y-86888869D01*
X90714869Y-86888869D02*
X90678000Y-86852000D01*
X83298078Y-92964000D02*
X85598000Y-92964000D01*
X77561000Y-99329000D02*
X77561000Y-98701078D01*
X77561000Y-98701078D02*
X83298078Y-92964000D01*
X87412869Y-91149131D02*
X87412869Y-89808317D01*
X85598000Y-92964000D02*
X87412869Y-91149131D01*
X87412869Y-89808317D02*
X87412869Y-86888869D01*
X87412869Y-86888869D02*
X87376000Y-86852000D01*
D31*
X63203000Y-132400000D02*
X64539000Y-132400000D01*
X64539000Y-134002000D02*
X64539000Y-132400000D01*
X64539000Y-132400000D02*
X66590000Y-132400000D01*
X63203000Y-134300000D02*
X64241000Y-134300000D01*
X64241000Y-134300000D02*
X64539000Y-134002000D01*
X66590000Y-132400000D02*
X66675000Y-132485000D01*
X67183000Y-127889000D02*
X67183000Y-131977000D01*
X67183000Y-131977000D02*
X66675000Y-132485000D01*
D30*
X58801000Y-132477000D02*
X60926000Y-132477000D01*
X60926000Y-132477000D02*
X61003000Y-132400000D01*
D32*
X69611000Y-107279000D02*
X64044000Y-107279000D01*
X64044000Y-107279000D02*
X58928000Y-112395000D01*
X58928000Y-112395000D02*
X58928000Y-113792000D01*
X58928000Y-113792000D02*
X58420000Y-114300000D01*
X58420000Y-114300000D02*
X57150000Y-114300000D01*
D30*
X73152000Y-119700040D02*
X73152000Y-122179000D01*
D31*
X70485000Y-127889000D02*
X71755000Y-127889000D01*
X71755000Y-127889000D02*
X73837800Y-129971800D01*
X73837800Y-129971800D02*
X73837800Y-131297680D01*
D32*
X58420000Y-115570000D02*
X55880000Y-115570000D01*
X55880000Y-115570000D02*
X54610000Y-116840000D01*
X59436000Y-114554000D02*
X58420000Y-115570000D01*
X59436000Y-112522000D02*
X59436000Y-114554000D01*
X64179000Y-107779000D02*
X59436000Y-112522000D01*
X69611000Y-107779000D02*
X64179000Y-107779000D01*
D30*
X75946000Y-119761000D02*
X75946000Y-122174000D01*
X97790000Y-111760000D02*
X99011314Y-111760000D01*
X99466410Y-134975590D02*
X98298000Y-136144000D01*
X99011314Y-111760000D02*
X99466410Y-112215096D01*
X99466410Y-112215096D02*
X99466410Y-134975590D01*
X98298000Y-136144000D02*
X88874600Y-136144000D01*
X88874600Y-136144000D02*
X87503000Y-134772400D01*
X87503000Y-134772400D02*
X87503000Y-134620000D01*
X87503000Y-113030000D02*
X96520000Y-113030000D01*
X96520000Y-113030000D02*
X97790000Y-111760000D01*
X83252000Y-108779000D02*
X87503000Y-113030000D01*
X81011000Y-108779000D02*
X83252000Y-108779000D01*
X92583000Y-134620000D02*
X92583000Y-132461000D01*
X92583000Y-132461000D02*
X94234000Y-130810000D01*
X98679000Y-113030000D02*
X97155000Y-113030000D01*
X94234000Y-130810000D02*
X96774000Y-130810000D01*
X96774000Y-130810000D02*
X99060000Y-128524000D01*
X99060000Y-113411000D02*
X98679000Y-113030000D01*
X99060000Y-128524000D02*
X99060000Y-113411000D01*
X97155000Y-113030000D02*
X95885000Y-114300000D01*
X95885000Y-114300000D02*
X95250000Y-114300000D01*
X87630000Y-114300000D02*
X95250000Y-114300000D01*
X83279599Y-109949599D02*
X87630000Y-114300000D01*
X78061000Y-110729000D02*
X78061000Y-109975000D01*
X78061000Y-109975000D02*
X78086401Y-109949599D01*
X78086401Y-109949599D02*
X83279599Y-109949599D01*
X97790000Y-104140000D02*
X96520000Y-105410000D01*
X96520000Y-105410000D02*
X93853000Y-105410000D01*
X93853000Y-105410000D02*
X93484000Y-105779000D01*
X93484000Y-105779000D02*
X81011000Y-105779000D01*
D32*
X94234000Y-102870000D02*
X96520000Y-102870000D01*
X96520000Y-102870000D02*
X97790000Y-101600000D01*
X92325000Y-104779000D02*
X94234000Y-102870000D01*
X81011000Y-104779000D02*
X92325000Y-104779000D01*
X91174000Y-104279000D02*
X93853000Y-101600000D01*
X93853000Y-101600000D02*
X95250000Y-101600000D01*
X81011000Y-104279000D02*
X91174000Y-104279000D01*
X93726000Y-100330000D02*
X96520000Y-100330000D01*
X96520000Y-100330000D02*
X97790000Y-99060000D01*
X90170000Y-103886000D02*
X93726000Y-100330000D01*
X82256000Y-103886000D02*
X90170000Y-103886000D01*
X82149000Y-103779000D02*
X82256000Y-103886000D01*
X81011000Y-103779000D02*
X82149000Y-103779000D01*
D30*
X95250000Y-99060000D02*
X94028686Y-99060000D01*
X94028686Y-99060000D02*
X91742686Y-101346000D01*
X91742686Y-101346000D02*
X84252000Y-101346000D01*
X84252000Y-101346000D02*
X83759000Y-101839000D01*
X83759000Y-101839000D02*
X83759000Y-102743000D01*
X81011000Y-103279000D02*
X83223000Y-103279000D01*
X83223000Y-103279000D02*
X83759000Y-102743000D01*
D32*
X97790000Y-96520000D02*
X96520000Y-97790000D01*
X96520000Y-97790000D02*
X93980000Y-97790000D01*
X81879000Y-102779000D02*
X81011000Y-102779000D01*
X93980000Y-97790000D02*
X90805010Y-100964990D01*
X90805010Y-100964990D02*
X84074010Y-100964990D01*
X84074010Y-100964990D02*
X84074000Y-100965000D01*
X84074000Y-100965000D02*
X83693000Y-100965000D01*
X83693000Y-100965000D02*
X81879000Y-102779000D01*
X83540620Y-100609380D02*
X81871000Y-102279000D01*
X81871000Y-102279000D02*
X81011000Y-102279000D01*
X95250000Y-96520000D02*
X94028686Y-96520000D01*
X94028686Y-96520000D02*
X89939306Y-100609380D01*
X89939306Y-100609380D02*
X83540620Y-100609380D01*
X78561000Y-99329000D02*
X78561000Y-98814656D01*
X83624236Y-93751420D02*
X91795580Y-93751420D01*
X78561000Y-98814656D02*
X83624236Y-93751420D01*
X91795580Y-93751420D02*
X92837000Y-92710000D01*
X92837000Y-92710000D02*
X96520000Y-92710000D01*
X96520000Y-92710000D02*
X97790000Y-93980000D01*
X54610000Y-93980000D02*
X55880000Y-92710000D01*
X55880000Y-92710000D02*
X64770000Y-92710000D01*
X64770000Y-92710000D02*
X64922399Y-92862399D01*
X64922399Y-92862399D02*
X67818000Y-95758000D01*
X75692000Y-100838000D02*
X75561000Y-100707000D01*
X75561000Y-100707000D02*
X75561000Y-99329000D01*
X65024000Y-93980000D02*
X66802000Y-95758000D01*
X75061000Y-99329000D02*
X75061000Y-101596000D01*
X75061000Y-101596000D02*
X75057000Y-101600000D01*
X57150000Y-93980000D02*
X65024000Y-93980000D01*
X65410586Y-95250000D02*
X67188586Y-97028000D01*
X67188586Y-97028000D02*
X67818000Y-97028000D01*
X74295000Y-100838000D02*
X74561000Y-100572000D01*
X74561000Y-100572000D02*
X74561000Y-100445000D01*
X74295000Y-100965000D02*
X74295000Y-100838000D01*
X74561000Y-100445000D02*
X74561000Y-99329000D01*
X55880000Y-95250000D02*
X65410586Y-95250000D01*
X54610000Y-96520000D02*
X55880000Y-95250000D01*
X74061000Y-100032200D02*
X74061000Y-100188586D01*
X74061000Y-100188586D02*
X73533000Y-100716586D01*
X73533000Y-101600000D02*
X73533000Y-100716586D01*
X74061000Y-100061586D02*
X74061000Y-100032200D01*
X74061000Y-100032200D02*
X74061000Y-99329000D01*
X57150000Y-96520000D02*
X65786000Y-96520000D01*
X72561000Y-99329000D02*
X72561000Y-98088000D01*
X72110601Y-97637601D02*
X56032399Y-97637601D01*
X72561000Y-98088000D02*
X72110601Y-97637601D01*
X56032399Y-97637601D02*
X55473599Y-98196401D01*
X55473599Y-98196401D02*
X54610000Y-99060000D01*
X71704211Y-97993211D02*
X58216789Y-97993211D01*
X58216789Y-97993211D02*
X57150000Y-99060000D01*
X72061000Y-98350000D02*
X71704211Y-97993211D01*
X72061000Y-99329000D02*
X72061000Y-98350000D01*
X58420000Y-100330000D02*
X55880000Y-100330000D01*
X55880000Y-100330000D02*
X54610000Y-101600000D01*
X60401179Y-98348821D02*
X58420000Y-100330000D01*
X71284021Y-98348821D02*
X60401179Y-98348821D01*
X71561000Y-99329000D02*
X71561000Y-98625800D01*
X71561000Y-98625800D02*
X71284021Y-98348821D01*
X59944000Y-100711000D02*
X59055000Y-101600000D01*
X59055000Y-101600000D02*
X57150000Y-101600000D01*
X68668000Y-100711000D02*
X59944000Y-100711000D01*
X69611000Y-101279000D02*
X69236000Y-101279000D01*
X69236000Y-101279000D02*
X68668000Y-100711000D01*
X69611000Y-102779000D02*
X68907800Y-102779000D01*
X68907800Y-102779000D02*
X68816800Y-102870000D01*
X68816800Y-102870000D02*
X55880000Y-102870000D01*
X55880000Y-102870000D02*
X54610000Y-104140000D01*
X59690000Y-103251000D02*
X58801000Y-104140000D01*
X58801000Y-104140000D02*
X57150000Y-104140000D01*
X68879800Y-103251000D02*
X59690000Y-103251000D01*
X69611000Y-103279000D02*
X68907800Y-103279000D01*
X68907800Y-103279000D02*
X68879800Y-103251000D01*
X58420000Y-105410000D02*
X55880000Y-105410000D01*
X55880000Y-105410000D02*
X54610000Y-106680000D01*
X60071000Y-103759000D02*
X58420000Y-105410000D01*
X68887800Y-103759000D02*
X60071000Y-103759000D01*
X69611000Y-103779000D02*
X68907800Y-103779000D01*
X68907800Y-103779000D02*
X68887800Y-103759000D01*
X60948000Y-104279000D02*
X58547000Y-106680000D01*
X58547000Y-106680000D02*
X57150000Y-106680000D01*
X69611000Y-104279000D02*
X60948000Y-104279000D01*
X58039000Y-107950000D02*
X55880000Y-107950000D01*
X55880000Y-107950000D02*
X54610000Y-109220000D01*
X61214000Y-104775000D02*
X58039000Y-107950000D01*
X68903800Y-104775000D02*
X61214000Y-104775000D01*
X69611000Y-104779000D02*
X68907800Y-104779000D01*
X68907800Y-104779000D02*
X68903800Y-104775000D01*
X62484000Y-105283000D02*
X58547000Y-109220000D01*
X58547000Y-109220000D02*
X57150000Y-109220000D01*
X69342000Y-105283000D02*
X62484000Y-105283000D01*
X69611000Y-105279000D02*
X69346000Y-105279000D01*
X69346000Y-105279000D02*
X69342000Y-105283000D01*
X58039000Y-110490000D02*
X55880000Y-110490000D01*
X55880000Y-110490000D02*
X54610000Y-111760000D01*
X62750000Y-105779000D02*
X58039000Y-110490000D01*
X69611000Y-105779000D02*
X62750000Y-105779000D01*
X69611000Y-106279000D02*
X63012000Y-106279000D01*
X63012000Y-106279000D02*
X57531000Y-111760000D01*
X57531000Y-111760000D02*
X57150000Y-111760000D01*
X57658000Y-113030000D02*
X55880000Y-113030000D01*
X55880000Y-113030000D02*
X54610000Y-114300000D01*
X63909000Y-106779000D02*
X57658000Y-113030000D01*
X69611000Y-106779000D02*
X63909000Y-106779000D01*
X92714000Y-105279000D02*
X93853000Y-104140000D01*
X93853000Y-104140000D02*
X95250000Y-104140000D01*
X81011000Y-105279000D02*
X92714000Y-105279000D01*
X84562000Y-106279000D02*
X84963000Y-106680000D01*
X84963000Y-106680000D02*
X95250000Y-106680000D01*
X81011000Y-106279000D02*
X84562000Y-106279000D01*
X85471000Y-107950000D02*
X84300000Y-106779000D01*
X84300000Y-106779000D02*
X81011000Y-106779000D01*
X96520000Y-107950000D02*
X85471000Y-107950000D01*
X97790000Y-106680000D02*
X96520000Y-107950000D01*
X85979000Y-109220000D02*
X95250000Y-109220000D01*
X84038000Y-107279000D02*
X85979000Y-109220000D01*
X81011000Y-107279000D02*
X84038000Y-107279000D01*
X97790000Y-109220000D02*
X96520000Y-110490000D01*
X96520000Y-110490000D02*
X86487000Y-110490000D01*
X86487000Y-110490000D02*
X83776000Y-107779000D01*
X83776000Y-107779000D02*
X81011000Y-107779000D01*
X86995000Y-111760000D02*
X95250000Y-111760000D01*
X83514000Y-108279000D02*
X86995000Y-111760000D01*
X81011000Y-108279000D02*
X83514000Y-108279000D01*
X93218000Y-115570000D02*
X96520000Y-115570000D01*
X96520000Y-115570000D02*
X97790000Y-114300000D01*
X92040867Y-116747133D02*
X93218000Y-115570000D01*
X77561000Y-114904092D02*
X79404041Y-116747133D01*
X79404041Y-116747133D02*
X92040867Y-116747133D01*
X77561000Y-110729000D02*
X77561000Y-114904092D01*
X77061000Y-110729000D02*
X77061000Y-114907000D01*
X77061000Y-114907000D02*
X79883000Y-117729000D01*
X79883000Y-117729000D02*
X94361000Y-117729000D01*
X94361000Y-117729000D02*
X95250000Y-116840000D01*
X76561000Y-110729000D02*
X76561000Y-114915000D01*
X76561000Y-114915000D02*
X79756000Y-118110000D01*
X79756000Y-118110000D02*
X96520000Y-118110000D01*
X96520000Y-118110000D02*
X97790000Y-116840000D01*
X76061000Y-110729000D02*
X76061000Y-114923000D01*
X76061000Y-114923000D02*
X80518000Y-119380000D01*
X80518000Y-119380000D02*
X94028686Y-119380000D01*
X94028686Y-119380000D02*
X95250000Y-119380000D01*
X75561000Y-110729000D02*
X75561000Y-114936092D01*
X75561000Y-114936092D02*
X81173298Y-120548390D01*
X81173298Y-120548390D02*
X96621610Y-120548390D01*
X96621610Y-120548390D02*
X97790000Y-119380000D01*
X75061000Y-114939000D02*
X76447579Y-116325579D01*
X76447579Y-116325579D02*
X81026000Y-120904000D01*
X75946000Y-116860320D02*
X76447579Y-116358741D01*
X75946000Y-117662960D02*
X75946000Y-116860320D01*
X76447579Y-116358741D02*
X76447579Y-116325579D01*
X75061000Y-110729000D02*
X75061000Y-114939000D01*
X81026000Y-120904000D02*
X91440000Y-120904000D01*
X91440000Y-120904000D02*
X92456000Y-121920000D01*
X92456000Y-121920000D02*
X95250000Y-121920000D01*
X72136000Y-116586000D02*
X73152000Y-117602000D01*
X64262000Y-124460000D02*
X57150000Y-124460000D01*
X72136000Y-116586000D02*
X64262000Y-124460000D01*
X72136000Y-114554000D02*
X72136000Y-116586000D01*
X74549000Y-112141000D02*
X72136000Y-114554000D01*
X74549000Y-111444200D02*
X74549000Y-112141000D01*
X74561000Y-110729000D02*
X74561000Y-111432200D01*
X74561000Y-111432200D02*
X74549000Y-111444200D01*
X64770000Y-123190000D02*
X55880000Y-123190000D01*
X55880000Y-123190000D02*
X54610000Y-124460000D01*
X71628000Y-116332000D02*
X64770000Y-123190000D01*
X71628000Y-114427000D02*
X71628000Y-116332000D01*
X74061000Y-111994000D02*
X71628000Y-114427000D01*
X74061000Y-110729000D02*
X74061000Y-111994000D01*
X71120000Y-116078000D02*
X65278000Y-121920000D01*
X65278000Y-121920000D02*
X57150000Y-121920000D01*
X71120000Y-114300000D02*
X71120000Y-116078000D01*
X73561000Y-111859000D02*
X71120000Y-114300000D01*
X73561000Y-110729000D02*
X73561000Y-111859000D01*
X75438000Y-131297680D02*
X75438000Y-128270000D01*
X75438000Y-128270000D02*
X69596000Y-122428000D01*
X64653784Y-120650000D02*
X55880000Y-120650000D01*
X65786000Y-120650000D02*
X64653784Y-120650000D01*
X73061000Y-110729000D02*
X73061000Y-111724000D01*
X73061000Y-111724000D02*
X70612000Y-114173000D01*
X70612000Y-114173000D02*
X70612000Y-115824000D01*
X70612000Y-115824000D02*
X65786000Y-120650000D01*
X55880000Y-120650000D02*
X54610000Y-121920000D01*
X74637900Y-128739900D02*
X68707000Y-122809000D01*
X68707000Y-122809000D02*
X68707000Y-121539000D01*
X74637900Y-131297680D02*
X74637900Y-128739900D01*
X74676000Y-131259580D02*
X74637900Y-131297680D01*
X64633911Y-119380000D02*
X57150000Y-119380000D01*
X66294000Y-119380000D02*
X64633911Y-119380000D01*
X72561000Y-110729000D02*
X72561000Y-111589000D01*
X72561000Y-111589000D02*
X70104000Y-114046000D01*
X70104000Y-114046000D02*
X70104000Y-115570000D01*
X70104000Y-115570000D02*
X66294000Y-119380000D01*
X66802000Y-118110000D02*
X55880000Y-118110000D01*
X55880000Y-118110000D02*
X54610000Y-119380000D01*
X69596000Y-115316000D02*
X66802000Y-118110000D01*
X69596000Y-113897200D02*
X69596000Y-115316000D01*
X72061000Y-110729000D02*
X72061000Y-111432200D01*
X72061000Y-111432200D02*
X69596000Y-113897200D01*
X71561000Y-110729000D02*
X71561000Y-111319000D01*
X67310000Y-116840000D02*
X57150000Y-116840000D01*
X71561000Y-111319000D02*
X69088000Y-113792000D01*
X69088000Y-113792000D02*
X69088000Y-115062000D01*
X69088000Y-115062000D02*
X67310000Y-116840000D01*
X71561000Y-110729000D02*
X71561000Y-111104000D01*
D30*
X76561000Y-99329000D02*
X76561000Y-96789000D01*
X76561000Y-96789000D02*
X76581000Y-96769000D01*
G36*
X92620197Y-123279803D02*
X92662211Y-123307666D01*
X92710000Y-123317000D01*
X94303257Y-123317000D01*
X93967312Y-123685053D01*
X93795042Y-124100974D01*
X93916183Y-124333000D01*
X95123000Y-124333000D01*
X95123000Y-124587000D01*
X93916183Y-124587000D01*
X93795042Y-124819026D01*
X93967312Y-125234947D01*
X94303257Y-125603000D01*
X93980000Y-125603000D01*
X93930590Y-125613006D01*
X93890197Y-125640197D01*
X86561394Y-132969000D01*
X86233000Y-132969000D01*
X86183590Y-132979006D01*
X86141965Y-133007447D01*
X86121712Y-133038920D01*
X85952910Y-132969000D01*
X85248750Y-132969000D01*
X85090000Y-133127750D01*
X85090000Y-134493000D01*
X85110000Y-134493000D01*
X85110000Y-134747000D01*
X85090000Y-134747000D01*
X85090000Y-134767000D01*
X84836000Y-134767000D01*
X84836000Y-134747000D01*
X83623150Y-134747000D01*
X83464400Y-134905750D01*
X83464400Y-135762309D01*
X83561073Y-135995698D01*
X83709374Y-136144000D01*
X82042000Y-136144000D01*
X82042000Y-133477691D01*
X83464400Y-133477691D01*
X83464400Y-134334250D01*
X83623150Y-134493000D01*
X84836000Y-134493000D01*
X84836000Y-133127750D01*
X84677250Y-132969000D01*
X83973090Y-132969000D01*
X83739701Y-133065673D01*
X83561073Y-133244302D01*
X83464400Y-133477691D01*
X82042000Y-133477691D01*
X82042000Y-129667000D01*
X82031994Y-129617590D01*
X82004803Y-129577197D01*
X78613000Y-126185394D01*
X78613000Y-122047000D01*
X91387394Y-122047000D01*
X92620197Y-123279803D01*
X92620197Y-123279803D01*
G37*
X92620197Y-123279803D02*
X92662211Y-123307666D01*
X92710000Y-123317000D01*
X94303257Y-123317000D01*
X93967312Y-123685053D01*
X93795042Y-124100974D01*
X93916183Y-124333000D01*
X95123000Y-124333000D01*
X95123000Y-124587000D01*
X93916183Y-124587000D01*
X93795042Y-124819026D01*
X93967312Y-125234947D01*
X94303257Y-125603000D01*
X93980000Y-125603000D01*
X93930590Y-125613006D01*
X93890197Y-125640197D01*
X86561394Y-132969000D01*
X86233000Y-132969000D01*
X86183590Y-132979006D01*
X86141965Y-133007447D01*
X86121712Y-133038920D01*
X85952910Y-132969000D01*
X85248750Y-132969000D01*
X85090000Y-133127750D01*
X85090000Y-134493000D01*
X85110000Y-134493000D01*
X85110000Y-134747000D01*
X85090000Y-134747000D01*
X85090000Y-134767000D01*
X84836000Y-134767000D01*
X84836000Y-134747000D01*
X83623150Y-134747000D01*
X83464400Y-134905750D01*
X83464400Y-135762309D01*
X83561073Y-135995698D01*
X83709374Y-136144000D01*
X82042000Y-136144000D01*
X82042000Y-133477691D01*
X83464400Y-133477691D01*
X83464400Y-134334250D01*
X83623150Y-134493000D01*
X84836000Y-134493000D01*
X84836000Y-133127750D01*
X84677250Y-132969000D01*
X83973090Y-132969000D01*
X83739701Y-133065673D01*
X83561073Y-133244302D01*
X83464400Y-133477691D01*
X82042000Y-133477691D01*
X82042000Y-129667000D01*
X82031994Y-129617590D01*
X82004803Y-129577197D01*
X78613000Y-126185394D01*
X78613000Y-122047000D01*
X91387394Y-122047000D01*
X92620197Y-123279803D01*
G36*
X68453000Y-93853000D02*
X67362606Y-93853000D01*
X65240803Y-91731197D01*
X65198789Y-91703334D01*
X65151000Y-91694000D01*
X61393606Y-91694000D01*
X59779803Y-90080197D01*
X59737789Y-90052334D01*
X59690000Y-90043000D01*
X58096743Y-90043000D01*
X58432688Y-89674947D01*
X58604958Y-89259026D01*
X58483817Y-89027000D01*
X57277000Y-89027000D01*
X57277000Y-89047000D01*
X57023000Y-89047000D01*
X57023000Y-89027000D01*
X54737000Y-89027000D01*
X54737000Y-89047000D01*
X54483000Y-89047000D01*
X54483000Y-89027000D01*
X53270150Y-89027000D01*
X53111400Y-89185750D01*
X53111400Y-89889910D01*
X53174812Y-90043000D01*
X52197000Y-90043000D01*
X52197000Y-87910090D01*
X53111400Y-87910090D01*
X53111400Y-88614250D01*
X53270150Y-88773000D01*
X54483000Y-88773000D01*
X54483000Y-87560150D01*
X54737000Y-87560150D01*
X54737000Y-88773000D01*
X57023000Y-88773000D01*
X57023000Y-87565531D01*
X57277000Y-87565531D01*
X57277000Y-88773000D01*
X58483817Y-88773000D01*
X58604958Y-88540974D01*
X58432688Y-88125053D01*
X58038490Y-87693179D01*
X57509027Y-87445032D01*
X57277000Y-87565531D01*
X57023000Y-87565531D01*
X56790973Y-87445032D01*
X56261510Y-87693179D01*
X56094529Y-87876119D01*
X56011927Y-87676701D01*
X55833298Y-87498073D01*
X55599909Y-87401400D01*
X54895750Y-87401400D01*
X54737000Y-87560150D01*
X54483000Y-87560150D01*
X54324250Y-87401400D01*
X53620091Y-87401400D01*
X53386702Y-87498073D01*
X53208073Y-87676701D01*
X53111400Y-87910090D01*
X52197000Y-87910090D01*
X52197000Y-85442150D01*
X52608909Y-85030959D01*
X52934628Y-84246541D01*
X52935370Y-83397185D01*
X52637795Y-82677000D01*
X68453000Y-82677000D01*
X68453000Y-93853000D01*
X68453000Y-93853000D01*
G37*
X68453000Y-93853000D02*
X67362606Y-93853000D01*
X65240803Y-91731197D01*
X65198789Y-91703334D01*
X65151000Y-91694000D01*
X61393606Y-91694000D01*
X59779803Y-90080197D01*
X59737789Y-90052334D01*
X59690000Y-90043000D01*
X58096743Y-90043000D01*
X58432688Y-89674947D01*
X58604958Y-89259026D01*
X58483817Y-89027000D01*
X57277000Y-89027000D01*
X57277000Y-89047000D01*
X57023000Y-89047000D01*
X57023000Y-89027000D01*
X54737000Y-89027000D01*
X54737000Y-89047000D01*
X54483000Y-89047000D01*
X54483000Y-89027000D01*
X53270150Y-89027000D01*
X53111400Y-89185750D01*
X53111400Y-89889910D01*
X53174812Y-90043000D01*
X52197000Y-90043000D01*
X52197000Y-87910090D01*
X53111400Y-87910090D01*
X53111400Y-88614250D01*
X53270150Y-88773000D01*
X54483000Y-88773000D01*
X54483000Y-87560150D01*
X54737000Y-87560150D01*
X54737000Y-88773000D01*
X57023000Y-88773000D01*
X57023000Y-87565531D01*
X57277000Y-87565531D01*
X57277000Y-88773000D01*
X58483817Y-88773000D01*
X58604958Y-88540974D01*
X58432688Y-88125053D01*
X58038490Y-87693179D01*
X57509027Y-87445032D01*
X57277000Y-87565531D01*
X57023000Y-87565531D01*
X56790973Y-87445032D01*
X56261510Y-87693179D01*
X56094529Y-87876119D01*
X56011927Y-87676701D01*
X55833298Y-87498073D01*
X55599909Y-87401400D01*
X54895750Y-87401400D01*
X54737000Y-87560150D01*
X54483000Y-87560150D01*
X54324250Y-87401400D01*
X53620091Y-87401400D01*
X53386702Y-87498073D01*
X53208073Y-87676701D01*
X53111400Y-87910090D01*
X52197000Y-87910090D01*
X52197000Y-85442150D01*
X52608909Y-85030959D01*
X52934628Y-84246541D01*
X52935370Y-83397185D01*
X52637795Y-82677000D01*
X68453000Y-82677000D01*
X68453000Y-93853000D01*
M02*
