G04 #@! TF.FileFunction,Soldermask,Top*
%FSLAX46Y46*%
G04 Gerber Fmt 4.6, Leading zero omitted, Abs format (unit mm)*
G04 Created by KiCad (PCBNEW 4.0.0-1rc2.201511201506+6189~38~ubuntu14.04.1-stable) date Tue 24 Nov 2015 01:48:09 PM EST*
%MOMM*%
G01*
G04 APERTURE LIST*
%ADD10C,0.100000*%
%ADD11R,1.598880X1.598880*%
%ADD12R,1.924000X2.432000*%
%ADD13R,2.580000X2.000000*%
%ADD14R,0.351600X1.101600*%
%ADD15R,1.101600X0.351600*%
%ADD16R,1.161600X0.751600*%
%ADD17R,0.601980X2.402840*%
%ADD18R,2.398980X2.899360*%
%ADD19C,1.299160*%
%ADD20R,1.400000X1.650000*%
%ADD21R,1.650000X1.400000*%
%ADD22R,2.900000X1.400000*%
%ADD23R,2.127200X2.432000*%
%ADD24O,2.127200X2.432000*%
%ADD25R,2.127200X2.127200*%
%ADD26O,2.127200X2.127200*%
%ADD27R,6.000700X2.500580*%
G04 APERTURE END LIST*
D10*
D11*
X68135500Y-116806980D03*
X68135500Y-118905020D03*
D12*
X64516000Y-129667000D03*
X67818000Y-129667000D03*
D13*
X72674430Y-125859320D03*
X63469570Y-125854680D03*
D14*
X79061000Y-99329000D03*
X78561000Y-99329000D03*
X78061000Y-99329000D03*
X77561000Y-99329000D03*
X77061000Y-99329000D03*
X76561000Y-99329000D03*
X76061000Y-99329000D03*
X75561000Y-99329000D03*
X75061000Y-99329000D03*
X74561000Y-99329000D03*
X74061000Y-99329000D03*
X73561000Y-99329000D03*
X73061000Y-99329000D03*
X72561000Y-99329000D03*
X72061000Y-99329000D03*
X71561000Y-99329000D03*
D15*
X69611000Y-101279000D03*
X69611000Y-101779000D03*
X69611000Y-102279000D03*
X69611000Y-102779000D03*
X69611000Y-103279000D03*
X69611000Y-103779000D03*
X69611000Y-104279000D03*
X69611000Y-104779000D03*
X69611000Y-105279000D03*
X69611000Y-105779000D03*
X69611000Y-106279000D03*
X69611000Y-106779000D03*
X69611000Y-107279000D03*
X69611000Y-107779000D03*
X69611000Y-108279000D03*
X69611000Y-108779000D03*
D14*
X71561000Y-110729000D03*
X72061000Y-110729000D03*
X72561000Y-110729000D03*
X73061000Y-110729000D03*
X73561000Y-110729000D03*
X74061000Y-110729000D03*
X74561000Y-110729000D03*
X75061000Y-110729000D03*
X75561000Y-110729000D03*
X76061000Y-110729000D03*
X76561000Y-110729000D03*
X77061000Y-110729000D03*
X77561000Y-110729000D03*
X78061000Y-110729000D03*
X78561000Y-110729000D03*
X79061000Y-110729000D03*
D15*
X81011000Y-108779000D03*
X81011000Y-108279000D03*
X81011000Y-107779000D03*
X81011000Y-107279000D03*
X81011000Y-106779000D03*
X81011000Y-106279000D03*
X81011000Y-105779000D03*
X81011000Y-105279000D03*
X81011000Y-104779000D03*
X81011000Y-104279000D03*
X81011000Y-103779000D03*
X81011000Y-103279000D03*
X81011000Y-102779000D03*
X81011000Y-102279000D03*
X81011000Y-101779000D03*
X81011000Y-101279000D03*
D16*
X63203000Y-134300000D03*
X63203000Y-133350000D03*
X63203000Y-132400000D03*
X61003000Y-132400000D03*
X61003000Y-134300000D03*
D17*
X73837800Y-131297680D03*
X74637900Y-131297680D03*
X75438000Y-131297680D03*
X76238100Y-131297680D03*
X77038200Y-131297680D03*
D18*
X70987920Y-131396740D03*
X70987920Y-136895840D03*
X79888080Y-131396740D03*
X79888080Y-136895840D03*
D19*
X73238360Y-133896100D03*
X77637640Y-133896100D03*
D20*
X83137500Y-100901500D03*
X85137500Y-100901500D03*
D21*
X79248000Y-112665000D03*
X79248000Y-114665000D03*
X81588768Y-112721682D03*
X81588768Y-114721682D03*
D20*
X65564000Y-108966000D03*
X67564000Y-108966000D03*
D21*
X74295000Y-96504000D03*
X74295000Y-94504000D03*
D20*
X67611500Y-111442500D03*
X65611500Y-111442500D03*
X78518000Y-84963000D03*
X80518000Y-84963000D03*
X72771000Y-84963000D03*
X70771000Y-84963000D03*
D21*
X89154000Y-84598000D03*
X89154000Y-86598000D03*
X85852000Y-84598000D03*
X85852000Y-86598000D03*
X67183000Y-101790500D03*
X67183000Y-99790500D03*
D20*
X72204875Y-96507365D03*
X70204875Y-96507365D03*
D22*
X66675000Y-132485000D03*
X66675000Y-135485000D03*
D21*
X58801000Y-134477000D03*
X58801000Y-132477000D03*
D22*
X55245000Y-134469000D03*
X55245000Y-131469000D03*
D11*
X70675500Y-116806980D03*
X70675500Y-118905020D03*
D23*
X84074000Y-134620000D03*
D24*
X86614000Y-134620000D03*
X89154000Y-134620000D03*
X91694000Y-134620000D03*
X94234000Y-134620000D03*
X96774000Y-134620000D03*
D25*
X54610000Y-88900000D03*
D26*
X57150000Y-88900000D03*
X54610000Y-91440000D03*
X57150000Y-91440000D03*
X54610000Y-93980000D03*
X57150000Y-93980000D03*
X54610000Y-96520000D03*
X57150000Y-96520000D03*
X54610000Y-99060000D03*
X57150000Y-99060000D03*
X54610000Y-101600000D03*
X57150000Y-101600000D03*
X54610000Y-104140000D03*
X57150000Y-104140000D03*
X54610000Y-106680000D03*
X57150000Y-106680000D03*
X54610000Y-109220000D03*
X57150000Y-109220000D03*
X54610000Y-111760000D03*
X57150000Y-111760000D03*
X54610000Y-114300000D03*
X57150000Y-114300000D03*
X54610000Y-116840000D03*
X57150000Y-116840000D03*
X54610000Y-119380000D03*
X57150000Y-119380000D03*
X54610000Y-121920000D03*
X57150000Y-121920000D03*
X54610000Y-124460000D03*
X57150000Y-124460000D03*
X54610000Y-127000000D03*
X57150000Y-127000000D03*
D25*
X95250000Y-88900000D03*
D26*
X97790000Y-88900000D03*
X95250000Y-91440000D03*
X97790000Y-91440000D03*
X95250000Y-93980000D03*
X97790000Y-93980000D03*
X95250000Y-96520000D03*
X97790000Y-96520000D03*
X95250000Y-99060000D03*
X97790000Y-99060000D03*
X95250000Y-101600000D03*
X97790000Y-101600000D03*
X95250000Y-104140000D03*
X97790000Y-104140000D03*
X95250000Y-106680000D03*
X97790000Y-106680000D03*
X95250000Y-109220000D03*
X97790000Y-109220000D03*
X95250000Y-111760000D03*
X97790000Y-111760000D03*
X95250000Y-114300000D03*
X97790000Y-114300000D03*
X95250000Y-116840000D03*
X97790000Y-116840000D03*
X95250000Y-119380000D03*
X97790000Y-119380000D03*
X95250000Y-121920000D03*
X97790000Y-121920000D03*
X95250000Y-124460000D03*
X97790000Y-124460000D03*
X95250000Y-127000000D03*
X97790000Y-127000000D03*
D27*
X70843140Y-89535000D03*
X80540860Y-89535000D03*
D12*
X89190869Y-89554317D03*
X85888869Y-89554317D03*
D20*
X92186000Y-129032000D03*
X90186000Y-129032000D03*
D21*
X76581000Y-94504000D03*
X76581000Y-96504000D03*
X75755500Y-122063000D03*
X75755500Y-124063000D03*
D20*
X65929000Y-121285000D03*
X67929000Y-121285000D03*
X72691500Y-121285000D03*
X70691500Y-121285000D03*
X79899000Y-122301000D03*
X81899000Y-122301000D03*
X60563000Y-130048000D03*
X58563000Y-130048000D03*
D13*
X89057430Y-125859320D03*
X79852570Y-125854680D03*
M02*
