G04 #@! TF.FileFunction,Soldermask,Top*
%FSLAX46Y46*%
G04 Gerber Fmt 4.6, Leading zero omitted, Abs format (unit mm)*
G04 Created by KiCad (PCBNEW 4.0.0-rc1-stable) date 10/23/2015 7:55:34 PM*
%MOMM*%
G01*
G04 APERTURE LIST*
%ADD10C,0.100000*%
%ADD11R,0.351600X1.101600*%
%ADD12R,1.101600X0.351600*%
%ADD13R,1.161600X0.751600*%
%ADD14R,0.601980X2.402840*%
%ADD15R,2.398980X2.899360*%
%ADD16C,1.299160*%
%ADD17R,1.400000X1.650000*%
%ADD18R,1.650000X1.400000*%
%ADD19R,2.900000X1.400000*%
%ADD20R,1.598880X1.598880*%
%ADD21R,1.924000X2.432000*%
%ADD22R,2.127200X2.432000*%
%ADD23O,2.127200X2.432000*%
%ADD24R,2.127200X2.127200*%
%ADD25O,2.127200X2.127200*%
%ADD26R,1.100000X1.700000*%
%ADD27R,1.700000X1.100000*%
%ADD28R,6.000700X2.500580*%
G04 APERTURE END LIST*
D10*
D11*
X79061000Y-99329000D03*
X78561000Y-99329000D03*
X78061000Y-99329000D03*
X77561000Y-99329000D03*
X77061000Y-99329000D03*
X76561000Y-99329000D03*
X76061000Y-99329000D03*
X75561000Y-99329000D03*
X75061000Y-99329000D03*
X74561000Y-99329000D03*
X74061000Y-99329000D03*
X73561000Y-99329000D03*
X73061000Y-99329000D03*
X72561000Y-99329000D03*
X72061000Y-99329000D03*
X71561000Y-99329000D03*
D12*
X69611000Y-101279000D03*
X69611000Y-101779000D03*
X69611000Y-102279000D03*
X69611000Y-102779000D03*
X69611000Y-103279000D03*
X69611000Y-103779000D03*
X69611000Y-104279000D03*
X69611000Y-104779000D03*
X69611000Y-105279000D03*
X69611000Y-105779000D03*
X69611000Y-106279000D03*
X69611000Y-106779000D03*
X69611000Y-107279000D03*
X69611000Y-107779000D03*
X69611000Y-108279000D03*
X69611000Y-108779000D03*
D11*
X71561000Y-110729000D03*
X72061000Y-110729000D03*
X72561000Y-110729000D03*
X73061000Y-110729000D03*
X73561000Y-110729000D03*
X74061000Y-110729000D03*
X74561000Y-110729000D03*
X75061000Y-110729000D03*
X75561000Y-110729000D03*
X76061000Y-110729000D03*
X76561000Y-110729000D03*
X77061000Y-110729000D03*
X77561000Y-110729000D03*
X78061000Y-110729000D03*
X78561000Y-110729000D03*
X79061000Y-110729000D03*
D12*
X81011000Y-108779000D03*
X81011000Y-108279000D03*
X81011000Y-107779000D03*
X81011000Y-107279000D03*
X81011000Y-106779000D03*
X81011000Y-106279000D03*
X81011000Y-105779000D03*
X81011000Y-105279000D03*
X81011000Y-104779000D03*
X81011000Y-104279000D03*
X81011000Y-103779000D03*
X81011000Y-103279000D03*
X81011000Y-102779000D03*
X81011000Y-102279000D03*
X81011000Y-101779000D03*
X81011000Y-101279000D03*
D13*
X63203000Y-134300000D03*
X63203000Y-133350000D03*
X63203000Y-132400000D03*
X61003000Y-132400000D03*
X61003000Y-134300000D03*
D14*
X73837800Y-131297680D03*
X74637900Y-131297680D03*
X75438000Y-131297680D03*
X76238100Y-131297680D03*
X77038200Y-131297680D03*
D15*
X70987920Y-131396740D03*
X70987920Y-136895840D03*
X79888080Y-131396740D03*
X79888080Y-136895840D03*
D16*
X73238360Y-133896100D03*
X77637640Y-133896100D03*
D17*
X83058000Y-99187000D03*
X85058000Y-99187000D03*
X83058000Y-96901000D03*
X85058000Y-96901000D03*
D18*
X79248000Y-112665000D03*
X79248000Y-114665000D03*
X83874768Y-112689682D03*
X83874768Y-114689682D03*
X81588768Y-112721682D03*
X81588768Y-114721682D03*
D17*
X65564000Y-108966000D03*
X67564000Y-108966000D03*
D18*
X74295000Y-96361000D03*
X74295000Y-94361000D03*
D17*
X67595974Y-113617878D03*
X65595974Y-113617878D03*
X67579974Y-111331878D03*
X65579974Y-111331878D03*
X80042000Y-85217000D03*
X82042000Y-85217000D03*
X74295000Y-85217000D03*
X72295000Y-85217000D03*
D18*
X90678000Y-84852000D03*
X90678000Y-86852000D03*
X87376000Y-84852000D03*
X87376000Y-86852000D03*
X64741952Y-101750538D03*
X64741952Y-99750538D03*
X67027952Y-101750538D03*
X67027952Y-99750538D03*
D17*
X72204875Y-96507365D03*
X70204875Y-96507365D03*
X72204875Y-94221365D03*
X70204875Y-94221365D03*
D19*
X66675000Y-132485000D03*
X66675000Y-135485000D03*
D18*
X58801000Y-134477000D03*
X58801000Y-132477000D03*
D19*
X55245000Y-134469000D03*
X55245000Y-131469000D03*
D20*
X73152000Y-117602000D03*
X73152000Y-119700040D03*
D21*
X67183000Y-127889000D03*
X70485000Y-127889000D03*
D20*
X75946000Y-117662960D03*
X75946000Y-119761000D03*
D22*
X84963000Y-134620000D03*
D23*
X87503000Y-134620000D03*
X90043000Y-134620000D03*
X92583000Y-134620000D03*
X95123000Y-134620000D03*
X97663000Y-134620000D03*
D24*
X54610000Y-88900000D03*
D25*
X57150000Y-88900000D03*
X54610000Y-91440000D03*
X57150000Y-91440000D03*
X54610000Y-93980000D03*
X57150000Y-93980000D03*
X54610000Y-96520000D03*
X57150000Y-96520000D03*
X54610000Y-99060000D03*
X57150000Y-99060000D03*
X54610000Y-101600000D03*
X57150000Y-101600000D03*
X54610000Y-104140000D03*
X57150000Y-104140000D03*
X54610000Y-106680000D03*
X57150000Y-106680000D03*
X54610000Y-109220000D03*
X57150000Y-109220000D03*
X54610000Y-111760000D03*
X57150000Y-111760000D03*
X54610000Y-114300000D03*
X57150000Y-114300000D03*
X54610000Y-116840000D03*
X57150000Y-116840000D03*
X54610000Y-119380000D03*
X57150000Y-119380000D03*
X54610000Y-121920000D03*
X57150000Y-121920000D03*
X54610000Y-124460000D03*
X57150000Y-124460000D03*
X54610000Y-127000000D03*
X57150000Y-127000000D03*
D24*
X95250000Y-88900000D03*
D25*
X97790000Y-88900000D03*
X95250000Y-91440000D03*
X97790000Y-91440000D03*
X95250000Y-93980000D03*
X97790000Y-93980000D03*
X95250000Y-96520000D03*
X97790000Y-96520000D03*
X95250000Y-99060000D03*
X97790000Y-99060000D03*
X95250000Y-101600000D03*
X97790000Y-101600000D03*
X95250000Y-104140000D03*
X97790000Y-104140000D03*
X95250000Y-106680000D03*
X97790000Y-106680000D03*
X95250000Y-109220000D03*
X97790000Y-109220000D03*
X95250000Y-111760000D03*
X97790000Y-111760000D03*
X95250000Y-114300000D03*
X97790000Y-114300000D03*
X95250000Y-116840000D03*
X97790000Y-116840000D03*
X95250000Y-119380000D03*
X97790000Y-119380000D03*
X95250000Y-121920000D03*
X97790000Y-121920000D03*
X95250000Y-124460000D03*
X97790000Y-124460000D03*
X95250000Y-127000000D03*
X97790000Y-127000000D03*
D26*
X87442000Y-95377000D03*
X89342000Y-95377000D03*
D27*
X76581000Y-94869000D03*
X76581000Y-96769000D03*
D26*
X83759000Y-102743000D03*
X85659000Y-102743000D03*
D27*
X73152000Y-122179000D03*
X73152000Y-124079000D03*
X75946000Y-122174000D03*
X75946000Y-124074000D03*
D28*
X72367140Y-89789000D03*
X82064860Y-89789000D03*
D21*
X90714869Y-89808317D03*
X87412869Y-89808317D03*
M02*
