M48
;DRILL file {KiCad 4.0.0-rc1-stable} date 11/15/2015 10:10:48 PM
;FORMAT={-:-/ absolute / inch / decimal}
FMAT,2
INCH,TZ
T1C0.013
T2C0.015
T3C0.040
T4C0.118
%
G90
G05
M72
T1
X2.175Y-5.115
X2.4409Y-3.5559
X2.4409Y-4.0059
X2.445Y-5.25
X2.4928Y-3.9272
X2.5219Y-4.3831
X2.5446Y-4.7
X2.5454Y-4.75
X2.59Y-3.8
X2.625Y-5.39
X2.63Y-3.77
X2.67Y-3.77
X2.67Y-3.82
X2.705Y-4.785
X2.7119Y-4.4281
X2.74Y-4.82
X2.764Y-3.655
X2.79Y-4.01
X2.845Y-3.655
X2.865Y-3.965
X2.895Y-4.
X2.925Y-3.665
X2.925Y-3.975
X2.9356Y-4.885
X2.955Y-4.
X2.9781Y-3.345
X2.985Y-3.975
X3.033Y-5.042
X3.14Y-4.005
X3.17Y-3.85
X3.2122Y-4.5728
X3.305Y-3.745
X3.405Y-3.86
X3.42Y-4.045
X3.445Y-3.3306
X3.55Y-3.65
T2
X2.06Y-5.2483
X2.61Y-3.61
X3.38Y-4.49
X3.38Y-4.83
T3
X2.15Y-3.5
X2.15Y-3.6
X2.15Y-3.7
X2.15Y-3.8
X2.15Y-3.9
X2.15Y-4.
X2.15Y-4.1
X2.15Y-4.2
X2.15Y-4.3
X2.15Y-4.4
X2.15Y-4.5
X2.15Y-4.6
X2.15Y-4.7
X2.15Y-4.8
X2.15Y-4.9
X2.15Y-5.
X2.25Y-3.5
X2.25Y-3.6
X2.25Y-3.7
X2.25Y-3.8
X2.25Y-3.9
X2.25Y-4.
X2.25Y-4.1
X2.25Y-4.2
X2.25Y-4.3
X2.25Y-4.4
X2.25Y-4.5
X2.25Y-4.6
X2.25Y-4.7
X2.25Y-4.8
X2.25Y-4.9
X2.25Y-5.
X3.345Y-5.3
X3.445Y-5.3
X3.545Y-5.3
X3.645Y-5.3
X3.745Y-5.3
X3.75Y-3.5
X3.75Y-3.6
X3.75Y-3.7
X3.75Y-3.8
X3.75Y-3.9
X3.75Y-4.
X3.75Y-4.1
X3.75Y-4.2
X3.75Y-4.3
X3.75Y-4.4
X3.75Y-4.5
X3.75Y-4.6
X3.75Y-4.7
X3.75Y-4.8
X3.75Y-4.9
X3.75Y-5.
X3.845Y-5.3
X3.85Y-3.5
X3.85Y-3.6
X3.85Y-3.7
X3.85Y-3.8
X3.85Y-3.9
X3.85Y-4.
X3.85Y-4.1
X3.85Y-4.2
X3.85Y-4.3
X3.85Y-4.4
X3.85Y-4.5
X3.85Y-4.6
X3.85Y-4.7
X3.85Y-4.8
X3.85Y-4.9
X3.85Y-5.
T4
X2.Y-3.3
X2.Y-5.4
X4.Y-3.3
X4.Y-5.4
T0
M30
